<svg width="17" height="17" viewBox="0 0 17 17" fill="none" xmlns="http://www.w3.org/2000/svg">
<path d="M4.8846 16.5527V15.5527H8V11.7989C7.11923 11.6412 6.3484 11.2729 5.6875 10.6941C5.0266 10.1152 4.57179 9.39761 4.32308 8.54121C3.26538 8.41684 2.36378 7.98318 1.61828 7.24023C0.872758 6.49728 0.5 5.60145 0.5 4.55273V3.55273C0.5 3.28478 0.599675 3.05113 0.799025 2.85176C0.998392 2.65241 1.23205 2.55273 1.5 2.55273H4.15385V0.552734H12.8462V2.55273H15.5C15.768 2.55273 16.0016 2.65241 16.201 2.85176C16.4003 3.05113 16.5 3.28478 16.5 3.55273V4.55273C16.5 5.60145 16.1272 6.49728 15.3817 7.24023C14.6362 7.98318 13.7346 8.41684 12.6769 8.54121C12.4282 9.39761 11.9734 10.1152 11.3125 10.6941C10.6516 11.2729 9.88077 11.6412 9 11.7989V15.5527H12.1154V16.5527H4.8846ZM4.15385 7.46811V3.55273H1.5V4.55273C1.5 5.31427 1.75384 5.96843 2.26153 6.51523C2.76923 7.06203 3.4 7.37966 4.15385 7.46811ZM8.5 10.822C9.42308 10.822 10.2051 10.5015 10.8462 9.86043C11.4872 9.2194 11.8077 8.43735 11.8077 7.51428V1.55273H5.1923V7.51428C5.1923 8.43735 5.51282 9.2194 6.15385 9.86043C6.79487 10.5015 7.57692 10.822 8.5 10.822ZM12.8462 7.46811C13.6 7.37966 14.2308 7.06203 14.7385 6.51523C15.2462 5.96843 15.5 5.31427 15.5 4.55273V3.55273H12.8462V7.46811Z" fill="#2D3035"/>
</svg>
