<svg width="17" height="17" viewBox="0 0 17 17" fill="none" xmlns="http://www.w3.org/2000/svg">
<path d="M5.65385 10.6923H14.3462L11.5885 7.03845L9.13463 10.1154L7.54615 8.23077L5.65385 10.6923ZM4.61538 14C4.15512 14 3.77083 13.8458 3.4625 13.5375C3.15417 13.2292 3 12.8449 3 12.3846V1.61537C3 1.15512 3.15417 0.770833 3.4625 0.4625C3.77083 0.154167 4.15512 0 4.61538 0H15.3846C15.8449 0 16.2292 0.154167 16.5375 0.4625C16.8458 0.770833 17 1.15512 17 1.61537V12.3846C17 12.8449 16.8458 13.2292 16.5375 13.5375C16.2292 13.8458 15.8449 14 15.3846 14H4.61538ZM1.61538 17C1.15513 17 0.770833 16.8458 0.4625 16.5375C0.154167 16.2292 0 15.8449 0 15.3846V3.61537H1V15.3846C1 15.5385 1.0641 15.6795 1.1923 15.8077C1.3205 15.9359 1.46153 16 1.61538 16H13.3846V17H1.61538Z" fill="white"/>
</svg>
