<svg width="24" height="24" viewBox="0 0 24 24" fill="none" xmlns="http://www.w3.org/2000/svg">
<path d="M6.61537 22.0001C6.15512 22.0001 5.77083 21.8459 5.4625 21.5376C5.15417 21.2292 5 20.845 5 20.3847V10.6155C5 10.1552 5.15417 9.77092 5.4625 9.46258C5.77083 9.15425 6.15512 9.00008 6.61537 9.00008H8.73077V10.0001H6.61537C6.46154 10.0001 6.32052 10.0642 6.1923 10.1924C6.0641 10.3206 6 10.4616 6 10.6155V20.3847C6 20.5385 6.0641 20.6796 6.1923 20.8078C6.32052 20.936 6.46154 21.0001 6.61537 21.0001H17.3846C17.5385 21.0001 17.6795 20.936 17.8077 20.8078C17.9359 20.6796 18 20.5385 18 20.3847V10.6155C18 10.4616 17.9359 10.3206 17.8077 10.1924C17.6795 10.0642 17.5385 10.0001 17.3846 10.0001H15.2692V9.00008H17.3846C17.8449 9.00008 18.2292 9.15425 18.5375 9.46258C18.8458 9.77092 19 10.1552 19 10.6155V20.3847C19 20.845 18.8458 21.2292 18.5375 21.5376C18.2292 21.8459 17.8449 22.0001 17.3846 22.0001H6.61537ZM11.5 15.5001V4.61356L9.4 6.71353L8.6923 6.00008L12 2.69238L15.3077 6.00008L14.6 6.71353L12.5 4.61356V15.5001H11.5Z" fill="black"/>
</svg>
