<svg width="2" height="14" viewBox="0 0 2 14" fill="none" xmlns="http://www.w3.org/2000/svg">
<path d="M1 13.5389C0.725 13.5389 0.489583 13.4409 0.29375 13.2451C0.0979167 13.0493 0 12.8139 0 12.5389C0 12.2638 0.0979167 12.0284 0.29375 11.8326C0.489583 11.6368 0.725 11.5388 1 11.5388C1.275 11.5388 1.51042 11.6368 1.70625 11.8326C1.90208 12.0284 2 12.2638 2 12.5389C2 12.8139 1.90208 13.0493 1.70625 13.2451C1.51042 13.4409 1.275 13.5389 1 13.5389ZM1 8.00039C0.725 8.00039 0.489583 7.90247 0.29375 7.70664C0.0979167 7.51081 0 7.27539 0 7.00039C0 6.72539 0.0979167 6.48997 0.29375 6.29414C0.489583 6.09831 0.725 6.00039 1 6.00039C1.275 6.00039 1.51042 6.09831 1.70625 6.29414C1.90208 6.48997 2 6.72539 2 7.00039C2 7.27539 1.90208 7.51081 1.70625 7.70664C1.51042 7.90247 1.275 8.00039 1 8.00039ZM1 2.46194C0.725 2.46194 0.489583 2.36402 0.29375 2.16819C0.0979167 1.97236 0 1.73693 0 1.46191C0 1.18691 0.0979167 0.951497 0.29375 0.755664C0.489583 0.559831 0.725 0.461914 1 0.461914C1.275 0.461914 1.51042 0.559831 1.70625 0.755664C1.90208 0.951497 2 1.18691 2 1.46191C2 1.73693 1.90208 1.97236 1.70625 2.16819C1.51042 2.36402 1.275 2.46194 1 2.46194Z" fill="black"/>
</svg>
