<svg width="18" height="17" viewBox="0 0 18 17" fill="none" xmlns="http://www.w3.org/2000/svg">
<path d="M4.39305 13.5687C4.1751 13.5687 3.99241 13.4949 3.84498 13.3475C3.69753 13.2001 3.6238 13.0174 3.6238 12.7994V11.7994H15.3738L16.0084 12.434V3.33789H17.0084C17.2264 3.33789 17.4091 3.41161 17.5565 3.55904C17.704 3.70647 17.7777 3.88916 17.7777 4.10712V16.6456L14.7008 13.5687H4.39305ZM0.546875 12.8764V1.10712C0.546875 0.889165 0.620592 0.706474 0.768025 0.559041C0.915475 0.411607 1.09818 0.337891 1.31613 0.337891H13.2392C13.4572 0.337891 13.6398 0.411607 13.7873 0.559041C13.9347 0.706474 14.0084 0.889165 14.0084 1.10712V9.03019C14.0084 9.24814 13.9347 9.43083 13.7873 9.57827C13.6398 9.72571 13.4572 9.79944 13.2392 9.79944H3.6238L0.546875 12.8764Z" fill="#2D3035"/>
</svg>
