<svg width="19" height="19" viewBox="0 0 19 19" fill="none" xmlns="http://www.w3.org/2000/svg">
<path d="M7.5 7.5C7.9218 7.5 8.27725 7.35545 8.56635 7.06635C8.85545 6.77725 9 6.4218 9 6C9 5.5782 8.85545 5.22275 8.56635 4.93365C8.27725 4.64455 7.9218 4.5 7.5 4.5C7.0782 4.5 6.72275 4.64455 6.43365 4.93365C6.14455 5.22275 6 5.5782 6 6C6 6.4218 6.14455 6.77725 6.43365 7.06635C6.72275 7.35545 7.0782 7.5 7.5 7.5ZM7.51923 11.5C8.07693 11.5 8.61443 11.3962 9.13173 11.1885C9.64904 10.9808 10.1173 10.6814 10.5366 10.2904C10.0173 10.0224 9.50418 9.82371 8.99713 9.69423C8.49008 9.56474 7.99744 9.5 7.51923 9.5C6.91283 9.5 6.34328 9.56795 5.81058 9.70385C5.27788 9.83975 4.83524 10.0353 4.48268 10.2904C4.88909 10.6814 5.35096 10.9808 5.86828 11.1885C6.38558 11.3962 6.93589 11.5 7.51923 11.5ZM17.6769 18.9039L12.4192 13.6462C11.6846 14.2436 10.9272 14.7019 10.1471 15.0212C9.36699 15.3404 8.48462 15.5 7.5 15.5C5.40768 15.5 3.63461 14.7731 2.18078 13.3192C0.726925 11.8654 0 10.0923 0 8C0 5.90768 0.726925 4.13461 2.18078 2.68078C3.63461 1.22693 5.40768 0.5 7.5 0.5C9.59232 0.5 11.3654 1.22693 12.8192 2.68078C14.2731 4.13461 15 5.90768 15 8C15 8.98462 14.8372 9.87019 14.5116 10.6567C14.1859 11.4433 13.7244 12.2038 13.1269 12.9384L18.3846 18.1769L17.6769 18.9039Z" fill="black"/>
</svg>
