<svg width="18" height="17" viewBox="0 0 18 17" fill="none" xmlns="http://www.w3.org/2000/svg">
<path d="M9 16.6542L8.2423 15.9696C6.61025 14.4786 5.26025 13.2023 4.1923 12.1408C3.12435 11.0792 2.2814 10.143 1.66345 9.33212C1.0455 8.52122 0.613775 7.78757 0.368275 7.13117C0.122758 6.47475 0 5.81449 0 5.15039C0 3.87859 0.43205 2.81064 1.29615 1.94654C2.16025 1.08244 3.2282 0.650391 4.5 0.650391C5.37948 0.650391 6.20448 0.875391 6.975 1.32539C7.74552 1.77539 8.42052 2.42987 9 3.28884C9.57948 2.42987 10.2545 1.77539 11.025 1.32539C11.7955 0.875391 12.6205 0.650391 13.5 0.650391C14.7718 0.650391 15.8397 1.08244 16.7038 1.94654C17.5679 2.81064 18 3.87859 18 5.15039C18 5.81449 17.8772 6.47475 17.6317 7.13117C17.3862 7.78757 16.9545 8.52122 16.3365 9.33212C15.7186 10.143 14.8789 11.0792 13.8173 12.1408C12.7558 13.2023 11.4026 14.4786 9.7577 15.9696L9 16.6542ZM9 15.3004C10.6 13.8542 11.9167 12.6155 12.95 11.584C13.9833 10.5526 14.8 9.65778 15.4 8.89944C16 8.14111 16.4167 7.46931 16.65 6.88404C16.8833 6.29879 17 5.72091 17 5.15039C17 4.15039 16.6667 3.31706 16 2.65039C15.3333 1.98372 14.5 1.65039 13.5 1.65039C12.7038 1.65039 11.9692 1.87763 11.2962 2.33212C10.6231 2.7866 10.0205 3.4709 9.48847 4.38502H8.51153C7.96666 3.45808 7.36089 2.77058 6.69423 2.32252C6.02756 1.87443 5.29615 1.65039 4.5 1.65039C3.51282 1.65039 2.68269 1.98372 2.00962 2.65039C1.33654 3.31706 1 4.15039 1 5.15039C1 5.72091 1.11667 6.29879 1.35 6.88404C1.58333 7.46931 2 8.14111 2.6 8.89944C3.2 9.65778 4.01667 10.5494 5.05 11.5744C6.08333 12.5994 7.4 13.8414 9 15.3004Z" fill="black"/>
</svg>
