<svg width="14" height="14" viewBox="0 0 14 14" fill="none" xmlns="http://www.w3.org/2000/svg">
<path d="M7 6.38479C6.175 6.38479 5.46875 6.09104 4.88125 5.50354C4.29375 4.91604 4 4.20979 4 3.38479C4 2.55977 4.29375 1.85352 4.88125 1.26602C5.46875 0.678516 6.175 0.384766 7 0.384766C7.825 0.384766 8.53125 0.678516 9.11875 1.26602C9.70625 1.85352 10 2.55977 10 3.38479C10 4.20979 9.70625 4.91604 9.11875 5.50354C8.53125 6.09104 7.825 6.38479 7 6.38479ZM0 13.6156V11.9694C0 11.5566 0.120192 11.1704 0.360575 10.8107C0.600958 10.4511 0.924358 10.172 1.33078 9.97324C2.27436 9.52068 3.21858 9.18125 4.16345 8.95497C5.10833 8.72868 6.05385 8.61554 7 8.61554C7.94615 8.61554 8.89167 8.72868 9.83655 8.95497C10.7814 9.18125 11.7256 9.52068 12.6692 9.97324C13.0756 10.172 13.399 10.4511 13.6394 10.8107C13.8798 11.1704 14 11.5566 14 11.9694V13.6156H0Z" fill="black"/>
</svg>
