<svg width="19" height="17" viewBox="0 0 19 17" fill="none" xmlns="http://www.w3.org/2000/svg">
<path d="M4.73094 13.6292C4.51299 13.6292 4.3303 13.5555 4.18287 13.4081C4.03542 13.2606 3.96169 13.0779 3.96169 12.86V11.86H15.7117L16.3463 12.4946V3.39844H17.3463C17.5643 3.39844 17.747 3.47215 17.8944 3.61959C18.0419 3.76702 18.1156 3.94971 18.1156 4.16766V16.7061L15.0386 13.6292H4.73094ZM0.884766 12.9369V1.16766C0.884766 0.949712 0.958482 0.767021 1.10592 0.619588C1.25337 0.472154 1.43607 0.398438 1.65402 0.398438H13.5771C13.795 0.398438 13.9777 0.472154 14.1252 0.619588C14.2726 0.767021 14.3463 0.949712 14.3463 1.16766V9.09074C14.3463 9.30869 14.2726 9.49138 14.1252 9.63881C13.9777 9.78626 13.795 9.85999 13.5771 9.85999H3.96169L0.884766 12.9369ZM13.3463 8.85996V1.39844H1.88479V10.2446L3.26939 8.85996H13.3463Z" fill="#2D3035"/>
</svg>
