<svg width="17" height="17" viewBox="0 0 17 17" fill="none" xmlns="http://www.w3.org/2000/svg">
<path d="M4.87093 16.5527V15.5527H7.98633V11.7989C7.10556 11.6412 6.33473 11.2729 5.67383 10.6941C5.01293 10.1152 4.55812 9.39761 4.3094 8.54121C3.2517 8.41684 2.3501 7.98318 1.6046 7.24023C0.859086 6.49728 0.486328 5.60145 0.486328 4.55273V3.55273C0.486328 3.28478 0.586003 3.05113 0.785353 2.85176C0.98472 2.65241 1.21838 2.55273 1.48633 2.55273H4.14018V0.552734H12.8325V2.55273H15.4863C15.7543 2.55273 15.9879 2.65241 16.1873 2.85176C16.3867 3.05113 16.4863 3.28478 16.4863 3.55273V4.55273C16.4863 5.60145 16.1136 6.49728 15.3681 7.24023C14.6226 7.98318 13.721 8.41684 12.6633 8.54121C12.4145 9.39761 11.9597 10.1152 11.2988 10.6941C10.6379 11.2729 9.86709 11.6412 8.98633 11.7989V15.5527H12.1017V16.5527H4.87093ZM4.14018 7.46811V3.55273H1.48633V4.55273C1.48633 5.31427 1.74017 5.96843 2.24785 6.51523C2.75555 7.06203 3.38633 7.37966 4.14018 7.46811ZM12.8325 7.46811C13.5863 7.37966 14.2171 7.06203 14.7248 6.51523C15.2325 5.96843 15.4863 5.31427 15.4863 4.55273V3.55273H12.8325V7.46811Z" fill="black"/>
</svg>
