<svg width="19" height="19" viewBox="0 0 19 19" fill="none" xmlns="http://www.w3.org/2000/svg">
<path d="M7.80762 7.35059C8.22942 7.35059 8.58487 7.20604 8.87397 6.91694C9.16307 6.62784 9.30762 6.27239 9.30762 5.85059C9.30762 5.42879 9.16307 5.07334 8.87397 4.78424C8.58487 4.49514 8.22942 4.35059 7.80762 4.35059C7.38582 4.35059 7.03037 4.49514 6.74127 4.78424C6.45217 5.07334 6.30762 5.42879 6.30762 5.85059C6.30762 6.27239 6.45217 6.62784 6.74127 6.91694C7.03037 7.20604 7.38582 7.35059 7.80762 7.35059ZM7.82684 11.3506C8.38454 11.3506 8.92204 11.2467 9.43934 11.0391C9.95666 10.8314 10.4249 10.532 10.8442 10.141C10.3249 9.87301 9.81179 9.67429 9.30474 9.54481C8.79769 9.41533 8.30506 9.35059 7.82684 9.35059C7.23326 9.35059 6.66692 9.41854 6.12782 9.55444C5.5887 9.69034 5.14286 9.88584 4.79029 10.141C5.19671 10.532 5.66178 10.8314 6.18549 11.0391C6.70921 11.2467 7.25633 11.3506 7.82684 11.3506ZM17.9845 18.7544L12.7268 13.4967C11.9922 14.0942 11.2349 14.5525 10.4547 14.8717C9.67461 15.191 8.79223 15.3506 7.80762 15.3506C5.7153 15.3506 3.94223 14.6237 2.48839 13.1698C1.03454 11.716 0.307617 9.9429 0.307617 7.85059C0.307617 5.75827 1.03454 3.98519 2.48839 2.53136C3.94223 1.07751 5.7153 0.350586 7.80762 0.350586C9.89993 0.350586 11.673 1.07751 13.1268 2.53136C14.5807 3.98519 15.3076 5.75827 15.3076 7.85059C15.3076 8.8352 15.148 9.72078 14.8288 10.5073C14.5095 11.2939 14.0512 12.0544 13.4538 12.789L18.6922 18.0275L17.9845 18.7544ZM7.80762 14.3506C9.60248 14.3506 11.1345 13.716 12.4038 12.4467C13.673 11.1775 14.3076 9.64545 14.3076 7.85059C14.3076 6.05572 13.673 4.52367 12.4038 3.25444C11.1345 1.9852 9.60248 1.35059 7.80762 1.35059C6.01275 1.35059 4.4807 1.9852 3.21147 3.25444C1.94223 4.52367 1.30762 6.05572 1.30762 7.85059C1.30762 9.64545 1.94223 11.1775 3.21147 12.4467C4.4807 13.716 6.01275 14.3506 7.80762 14.3506Z" fill="#2D3035"/>
</svg>
