<svg width="12" height="16" viewBox="0 0 12 16" fill="none" xmlns="http://www.w3.org/2000/svg">
<path d="M0 15.5V1.61537C0 1.15512 0.154167 0.770833 0.4625 0.4625C0.770833 0.154167 1.15512 0 1.61537 0H10.3846C10.8449 0 11.2292 0.154167 11.5375 0.4625C11.8458 0.770833 12 1.15512 12 1.61537V15.5L6 12.9231L0 15.5ZM1 13.95L6 11.8L11 13.95V1.61537C11 1.46154 10.9359 1.32052 10.8077 1.1923C10.6795 1.0641 10.5385 1 10.3846 1H1.61537C1.46154 1 1.32052 1.0641 1.1923 1.1923C1.0641 1.32052 1 1.46154 1 1.61537V13.95Z" fill="black"/>
</svg>
