<svg width="15" height="15" viewBox="0 0 15 15" fill="none" xmlns="http://www.w3.org/2000/svg">
<path d="M7.5 6.93753C6.675 6.93753 5.96875 6.64378 5.38125 6.05628C4.79375 5.46878 4.5 4.76253 4.5 3.93753C4.5 3.11251 4.79375 2.40625 5.38125 1.81875C5.96875 1.23125 6.675 0.9375 7.5 0.9375C8.325 0.9375 9.03125 1.23125 9.61875 1.81875C10.2063 2.40625 10.5 3.11251 10.5 3.93753C10.5 4.76253 10.2063 5.46878 9.61875 6.05628C9.03125 6.64378 8.325 6.93753 7.5 6.93753ZM0.5 14.1683V12.5221C0.5 12.1093 0.620192 11.7231 0.860575 11.3635C1.10096 11.0039 1.42436 10.7247 1.83078 10.526C2.77436 10.0734 3.71858 9.73398 4.66345 9.5077C5.60833 9.28142 6.55385 9.16828 7.5 9.16828C8.44615 9.16828 9.39167 9.28142 10.3365 9.5077C11.2814 9.73398 12.2256 10.0734 13.1692 10.526C13.5756 10.7247 13.899 11.0039 14.1394 11.3635C14.3798 11.7231 14.5 12.1093 14.5 12.5221V14.1683H0.5ZM1.5 13.1683H13.5V12.5221C13.5 12.3003 13.4285 12.092 13.2856 11.8971C13.1426 11.7023 12.9449 11.5375 12.6923 11.4029C11.8692 11.0042 11.0206 10.6987 10.1464 10.4866C9.27222 10.2744 8.39008 10.1683 7.5 10.1683C6.60992 10.1683 5.72778 10.2744 4.8536 10.4866C3.9794 10.6987 3.13077 11.0042 2.3077 11.4029C2.05513 11.5375 1.85737 11.7023 1.71442 11.8971C1.57148 12.092 1.5 12.3003 1.5 12.5221V13.1683ZM7.5 5.93753C8.05 5.93753 8.52083 5.74169 8.9125 5.35003C9.30417 4.95836 9.5 4.48753 9.5 3.93753C9.5 3.38753 9.30417 2.91669 8.9125 2.52503C8.52083 2.13336 8.05 1.93753 7.5 1.93753C6.95 1.93753 6.47917 2.13336 6.0875 2.52503C5.69583 2.91669 5.5 3.38753 5.5 3.93753C5.5 4.48753 5.69583 4.95836 6.0875 5.35003C6.47917 5.74169 6.95 5.93753 7.5 5.93753Z" fill="#2D3035"/>
</svg>
