<svg width="21" height="20" viewBox="0 0 21 20" fill="none" xmlns="http://www.w3.org/2000/svg">
<path d="M19.7983 20L12.1551 12.3568C11.5447 12.8764 10.8429 13.2786 10.0494 13.5634C9.25602 13.8482 8.45867 13.9906 7.65742 13.9906C5.70233 13.9906 4.04768 13.3139 2.69346 11.9604C1.33923 10.6069 0.662109 8.95315 0.662109 6.99912C0.662109 5.0451 1.33885 3.39007 2.69234 2.03404C4.04582 0.678013 5.69957 0 7.6536 0C9.60765 0 11.2627 0.677109 12.6187 2.03133C13.9747 3.38554 14.6527 5.0402 14.6527 6.99531C14.6527 7.8435 14.5025 8.66431 14.202 9.45774C13.9016 10.2512 13.5072 10.9296 13.0189 11.493L20.6621 19.1361L19.7983 20ZM7.65742 12.77C9.27715 12.77 10.6445 12.2124 11.7595 11.0974C12.8746 9.98239 13.4321 8.61502 13.4321 6.99531C13.4321 5.3756 12.8746 4.00823 11.7595 2.8932C10.6445 1.77817 9.27715 1.22066 7.65742 1.22066C6.03771 1.22066 4.67034 1.77817 3.55531 2.8932C2.4403 4.00823 1.8828 5.3756 1.8828 6.99531C1.8828 8.61502 2.4403 9.98239 3.55531 11.0974C4.67034 12.2124 6.03771 12.77 7.65742 12.77Z" fill="black"/>
</svg>
