<svg width="74" height="19" viewBox="0 0 74 19" fill="none" xmlns="http://www.w3.org/2000/svg">
<path d="M2.28211 15H0.0821094V0.699999H6.04211C8.74211 0.699999 10.7221 1.96 10.7221 4.96C10.7221 7.96 8.74211 9.2 6.04211 9.2H2.28211V15ZM2.28211 7.3H5.94211C7.60211 7.3 8.44211 6.56 8.44211 4.96C8.44211 3.34 7.60211 2.6 5.94211 2.6H2.28211V7.3ZM13.623 2.98H11.403V0.86H13.623V2.98ZM13.483 15H11.523V4.8H13.483V15ZM19.4632 15.3C16.4232 15.3 14.4432 13.1 14.4432 9.9C14.4432 6.7 16.4232 4.5 19.4432 4.5C22.0632 4.5 23.8032 6.2 24.0432 8.5H22.0232C21.9232 7.44 21.3232 6.12 19.4632 6.12C17.2832 6.12 16.4832 7.98 16.4832 9.9C16.4832 11.82 17.2832 13.66 19.4632 13.66C21.3432 13.66 21.9232 12.38 22.0232 11.22H24.0432C23.9032 13.56 22.0832 15.3 19.4632 15.3ZM34.0082 15H31.6882L28.3482 9.78L26.8682 11.2V15H24.9082V0.699999H26.8682V9.12L31.3282 4.8H33.5882L29.6682 8.54L34.0082 15ZM39.6543 15.28C36.0343 15.28 33.4943 13.4 33.3343 10.18H35.6143C35.7743 12.1 36.9143 13.4 39.5943 13.4C41.8943 13.4 42.5943 12.4 42.5943 11.1C42.5943 9.28 41.1943 9.02 38.5943 8.36C36.3543 7.76 33.8943 7.04 33.8943 4.32C33.8943 1.84 35.8143 0.419999 38.8943 0.419999C42.1543 0.419999 44.2743 2.08 44.4943 4.96H42.2143C41.9743 3.24 40.9943 2.3 38.9143 2.3C37.1143 2.3 36.1943 2.96 36.1943 4.2C36.1943 5.8 37.6943 6.14 39.5343 6.6C42.2943 7.3 44.8943 7.96 44.8943 10.98C44.8943 13.44 43.2343 15.28 39.6543 15.28ZM49.5143 13.5C49.8543 13.5 50.0143 13.48 50.3543 13.42V15C49.8543 15.1 49.5343 15.12 49.1143 15.12C47.4343 15.12 46.4143 14.48 46.4143 12.12V6.42H44.9343V4.8H46.4143V1.52H48.3743V4.8H50.3343V6.42H48.3743V12.18C48.3743 13.26 48.6743 13.5 49.5143 13.5ZM52.5852 18.58C52.1452 18.58 51.8452 18.54 51.3252 18.44V16.84C51.6652 16.88 51.8452 16.9 52.1652 16.9C52.9452 16.9 53.8652 16.5 54.2652 14.9L50.1452 4.8H52.2852L55.2652 12.6H55.3052L58.1052 4.8H60.1652L56.1252 15.24C55.1452 17.76 54.1652 18.58 52.5852 18.58ZM62.6229 15H60.6629V0.699999H62.6229V15ZM73.483 9.68C73.483 9.96 73.483 10.26 73.463 10.42H65.623C65.663 12.12 66.663 13.7 68.683 13.7C70.483 13.7 71.183 12.54 71.363 11.86H73.363C72.823 13.82 71.323 15.3 68.643 15.3C65.403 15.3 63.603 13 63.603 9.88C63.603 6.68 65.523 4.48 68.643 4.48C71.743 4.48 73.483 6.52 73.483 9.68ZM65.623 8.88H71.443C71.443 7.28 70.323 6.08 68.583 6.08C66.943 6.08 65.743 7.2 65.623 8.88Z" fill="black"/>
</svg>
