<svg width="74" height="19" viewBox="0 0 74 19" fill="none" xmlns="http://www.w3.org/2000/svg">
<path d="M2.62 14.8369H0.42V0.536913H6.38C9.08 0.536913 11.06 1.79691 11.06 4.79691C11.06 7.79691 9.08 9.03691 6.38 9.03691H2.62V14.8369ZM2.62 7.13691H6.28C7.94 7.13691 8.78 6.39691 8.78 4.79691C8.78 3.17691 7.94 2.43691 6.28 2.43691H2.62V7.13691ZM13.9609 2.81691H11.7409V0.696914H13.9609V2.81691ZM13.8209 14.8369H11.8609V4.63691H13.8209V14.8369ZM19.8011 15.1369C16.7611 15.1369 14.7811 12.9369 14.7811 9.73691C14.7811 6.53691 16.7611 4.33691 19.7811 4.33691C22.4011 4.33691 24.1411 6.03691 24.3811 8.33691H22.3611C22.2611 7.27691 21.6611 5.95691 19.8011 5.95691C17.6211 5.95691 16.8211 7.81691 16.8211 9.73691C16.8211 11.6569 17.6211 13.4969 19.8011 13.4969C21.6811 13.4969 22.2611 12.2169 22.3611 11.0569H24.3811C24.2411 13.3969 22.4211 15.1369 19.8011 15.1369ZM34.3461 14.8369H32.0261L28.6861 9.61691L27.2061 11.0369V14.8369H25.2461V0.536913H27.2061V8.95691L31.6661 4.63691H33.9261L30.0061 8.37691L34.3461 14.8369ZM39.9922 15.1169C36.3722 15.1169 33.8322 13.2369 33.6722 10.0169H35.9522C36.1122 11.9369 37.2522 13.2369 39.9322 13.2369C42.2322 13.2369 42.9322 12.2369 42.9322 10.9369C42.9322 9.11691 41.5322 8.85691 38.9322 8.19691C36.6922 7.59691 34.2322 6.87691 34.2322 4.15691C34.2322 1.67691 36.1522 0.256913 39.2322 0.256913C42.4922 0.256913 44.6122 1.91691 44.8322 4.79691H42.5522C42.3122 3.07691 41.3322 2.13691 39.2522 2.13691C37.4522 2.13691 36.5322 2.79691 36.5322 4.03691C36.5322 5.63691 38.0322 5.97691 39.8722 6.43691C42.6322 7.13691 45.2322 7.79691 45.2322 10.8169C45.2322 13.2769 43.5722 15.1169 39.9922 15.1169ZM49.8522 13.3369C50.1922 13.3369 50.3522 13.3169 50.6922 13.2569V14.8369C50.1922 14.9369 49.8722 14.9569 49.4522 14.9569C47.7722 14.9569 46.7522 14.3169 46.7522 11.9569V6.25691H45.2722V4.63691H46.7522V1.35691H48.7122V4.63691H50.6722V6.25691H48.7122V12.0169C48.7122 13.0969 49.0122 13.3369 49.8522 13.3369ZM52.9231 18.4169C52.4831 18.4169 52.1831 18.3769 51.6631 18.2769V16.6769C52.0031 16.7169 52.1831 16.7369 52.5031 16.7369C53.2831 16.7369 54.2031 16.3369 54.6031 14.7369L50.4831 4.63691H52.6231L55.6031 12.4369H55.6431L58.4431 4.63691H60.5031L56.4631 15.0769C55.4831 17.5969 54.5031 18.4169 52.9231 18.4169ZM62.9608 14.8369H61.0008V0.536913H62.9608V14.8369ZM73.8209 9.51691C73.8209 9.79691 73.8209 10.0969 73.8009 10.2569H65.9609C66.0009 11.9569 67.0009 13.5369 69.0209 13.5369C70.8209 13.5369 71.5209 12.3769 71.7009 11.6969H73.7009C73.1609 13.6569 71.6609 15.1369 68.9809 15.1369C65.7409 15.1369 63.9409 12.8369 63.9409 9.71691C63.9409 6.51691 65.8609 4.31691 68.9809 4.31691C72.0809 4.31691 73.8209 6.35691 73.8209 9.51691ZM65.9609 8.71691H71.7809C71.7809 7.11691 70.6609 5.91691 68.9209 5.91691C67.2809 5.91691 66.0809 7.03691 65.9609 8.71691Z" fill="white"/>
</svg>
