<svg width="18" height="18" viewBox="0 0 18 18" fill="none" xmlns="http://www.w3.org/2000/svg">
<path d="M18 17.0769L14.9231 14H1.61538C1.15513 14 0.770833 13.8458 0.4625 13.5375C0.154167 13.2292 0 12.8449 0 12.3846V1.61537C0 1.15512 0.154167 0.770833 0.4625 0.4625C0.770833 0.154167 1.15513 0 1.61538 0H16.3846C16.8449 0 17.2292 0.154167 17.5375 0.4625C17.8458 0.770833 18 1.15512 18 1.61537V17.0769ZM1.61538 13H15.35L17 14.6442V1.61537C17 1.46154 16.9359 1.32052 16.8077 1.1923C16.6795 1.0641 16.5385 1 16.3846 1H1.61538C1.46154 1 1.32052 1.0641 1.1923 1.1923C1.0641 1.32052 1 1.46154 1 1.61537V12.3846C1 12.5385 1.0641 12.6795 1.1923 12.8077C1.32052 12.9359 1.46154 13 1.61538 13Z" fill="black"/>
</svg>
